<svg width="33" height="64" fill="none" xmlns="http://www.w3.org/2000/svg"><path fill-rule="evenodd" clip-rule="evenodd" d="M32.001 1.184c.064-.576 0-.512-.225-1.024a.339.339 0 00-.29-.16c-.354 0-.934.448-1.256.8-2.189 2.432-4.86 6.528-6.277 7.008-.709.256-1.385-.992-1.867-1.44-1.932-1.888-4.41-4-8.435-5.248C11.526.416 9.723-.192 9.047.128c-1.255.576.548 1.728 1.256 2.496.547.576 1.159.512 1.803.224a2.145 2.145 0 011.545 0c3.638 1.472 5.698 2.88 7.79 5.12.677.768 1.095 1.728.451 2.336a614.431 614.431 0 00-6.535 6.4c-.483.48-1.062 1.12-1.674 1.088-.386-.032-.998-.448-1.352-.672-.612-.416-1.159-.64-1.738-1.088-.515-.384-.612-.736-.644-1.376-.033-1.056.225-1.952.386-2.752.258-1.44.58-2.88.87-4.352.225-1.12.353-2.56.257-3.744-.097-.288-.58-.352-.902-.128-.128.608-.128.608-.257 1.248-.129.672-.258 1.888-.387 2.56-.386 2.112-.9 3.712-1.255 6.464a68.72 68.72 0 00-.225 1.632c-.065.704.16 1.568-.065 2.016-.29.64-.547 1.152-.386 2.016.129.832-.064 1.056-.58 1.472-.74.608-2.382 1.824-3.315 2.368-.516.32-1.16.928-.773 1.568.354.64 1.159.768 1.867.8 1.095.064 2.479-1.344 3.541-1.568.419-.096.998-.256 1.353.032.45.32.547.832.643 1.344.419 1.92.29 2.912.161 4.96-.096 1.216-.386 3.424-.804 4.576-.322.896-.644 1.28-1.385 1.92-.676.576-1.48 1.376-1.706 2.784-.097.672.354 2.272-.354 4.096-.676 1.728-.773 2.112-1.481 3.744-.354.832-.708 1.856-1.095 2.88-.676 1.792-.772 1.664-1.32 3.488-.29.992-.74 2.432-1.03 3.424-.515 1.632-.322 1.536-1.127 3.2-.225.416-.837 1.728-.386 2.56.193.352.708.736 1.095.736h.096c.805-.192 1.417-.48 1.803-1.28.354-.736.161-1.792.419-2.56.58-1.76 1.159-3.552 1.931-5.248.837-1.824.74-2.528 1.481-4.448.805-2.176 1.352-3.52 2.511-5.504 1.385-2.336 4.99-5.504 6.535-6.624 2.415-1.696 3.928-2.816 3.606-.864-.258 1.664-3.09 5.824-3.702 7.2-.322.672-.354 1.376-.065 1.952.355.736 1.16 1.728 1.964 1.664.74-.032 1.385-1.024 1.16-1.728-.29-.864-.323-1.504.74-3.552 1.32-2.528 3.412-6.144 3.026-9.312-.129-1.152-1.513-1.728-2.64-1.344-1.288.448-3.413 2.144-4.732 2.848-.902.48-1.546.672-1.642-.288-.097-.896.096-1.952.16-2.88.29-3.296.097-4.48.42-7.392.096-.832.933-1.952 1.641-1.312 2.253 1.984 5.15 4.288 7.404 6.08.934.736 1.352 1.376 1.803 2.688.226.64.032 1.6-.193 2.496-.096.416.097 1.024.998.416 2.093-2.816 3.51-7.392 3.51-10.944.031-3.136.385-6.528-2.995-12.032-.547-.896-1.835-2.88-.58-4.192 1.771-1.92 5.28-5.152 6.053-6.656zm-4.25 19.296a39.06 39.06 0 01.13 3.36c0 .8-.29 1.792-.451 2.88-.097.736-.161 1.792-.515 2.848-.065.16-.258.64-.612.64-.387.032-.515-.48-.708-.704-.676-.768-1.224-1.504-1.964-2.112a39.549 39.549 0 00-2.672-1.856c-.709-.48-1.449-1.28-2.157-1.792-.74-.544-1.417-1.056-2.093-1.696a2.374 2.374 0 01-.515-.64 1.76 1.76 0 01-.032-1.216c.16-.544.515-1.024.837-1.504.419-.608.87-1.184 1.352-1.728.29-.32.773-.768 1.127-.992.547-.32.772-.416 1.223-.864.45-.416.419-.832.87-1.28.45-.448.997-1.312 1.545-1.696.225-.16.611-.32.869-.192.354.128.708.576.901.896 1.481 2.624 2.64 4.8 2.866 7.648z" fill="#1F4766"/></svg>