<svg width="182" height="33" fill="none" xmlns="http://www.w3.org/2000/svg"><path d="M50.04 24.4a.463.463 0 01-.34-.14.463.463 0 01-.14-.34V10.9c0-.147.04-.267.12-.36a.487.487 0 01.36-.14h5.8c1.56 0 2.72.347 3.48 1.04.773.68 1.16 1.613 1.16 2.8 0 .693-.173 1.287-.52 1.78-.333.48-.727.827-1.18 1.04.56.253 1.027.667 1.4 1.24.387.573.58 1.227.58 1.96 0 1.24-.42 2.24-1.26 3-.827.76-1.993 1.14-3.5 1.14h-5.96zm5.44-8.26c.693 0 1.22-.167 1.58-.5.36-.333.54-.78.54-1.34 0-.573-.18-1.013-.54-1.32-.36-.32-.887-.48-1.58-.48h-3.14v3.64h3.14zm.2 6.14c.693 0 1.233-.187 1.62-.56.387-.387.58-.873.58-1.46 0-.6-.193-1.087-.58-1.46-.387-.387-.927-.58-1.62-.58h-3.34v4.06h3.34zM72.51 14a.44.44 0 01.32.14c.094.08.14.18.14.3v9.48a.463.463 0 01-.14.34.463.463 0 01-.34.14h-1.66a.463.463 0 01-.34-.14.463.463 0 01-.14-.34V17.5l-4.8 6.58c-.12.213-.3.32-.54.32h-1.52a.478.478 0 01-.32-.12.463.463 0 01-.14-.34v-9.46c0-.133.048-.247.14-.34a.463.463 0 01.34-.14h1.66c.148 0 .26.047.34.14.094.08.14.193.14.34v6.44l4.8-6.6c.148-.213.328-.32.54-.32h1.52zm2.582 12.6a.463.463 0 01-.34-.14.423.423 0 01-.14-.34v-3.36c0-.133.047-.247.14-.34a.463.463 0 01.34-.14h.16c.52 0 .9-.413 1.14-1.24.24-.827.36-2.113.36-3.86v-2.7c0-.147.047-.26.14-.34a.463.463 0 01.34-.14h7.12c.147 0 .26.047.34.14.093.08.14.193.14.34v7.78h.9c.147 0 .26.047.34.14.093.08.14.193.14.34v3.38c0 .147-.047.26-.14.34a.424.424 0 01-.34.14h-1.64a.487.487 0 01-.36-.14.463.463 0 01-.14-.34V24.4h-6.36v1.72c0 .147-.047.26-.14.34a.424.424 0 01-.34.14h-1.66zm7.14-4.34v-6.14h-2.96v1.34c0 2.293-.314 3.9-.94 4.82l3.9-.02zM92.53 24.6c-1.48 0-2.66-.427-3.54-1.28-.867-.867-1.327-2.08-1.38-3.64l-.02-.5.02-.5c.066-1.52.533-2.713 1.4-3.58.88-.867 2.053-1.3 3.52-1.3 1.573 0 2.786.48 3.64 1.44.866.96 1.3 2.24 1.3 3.84v.42a.463.463 0 01-.14.34.488.488 0 01-.36.14h-6.64v.16c.026.733.226 1.353.6 1.86.386.493.913.74 1.58.74.786 0 1.42-.307 1.9-.92.12-.147.213-.24.28-.28.08-.04.193-.06.34-.06h1.72c.12 0 .22.04.3.12.093.067.14.153.14.26 0 .32-.194.7-.58 1.14-.374.427-.914.8-1.62 1.12-.707.32-1.527.48-2.46.48zm2.22-6.3v-.06c0-.787-.2-1.42-.6-1.9-.387-.48-.927-.72-1.62-.72-.694 0-1.234.24-1.62.72-.387.48-.58 1.113-.58 1.9v.06h4.42zm9.442 6.3c-1.56 0-2.766-.4-3.62-1.2-.853-.813-1.313-1.92-1.38-3.32l-.02-.88.02-.88c.067-1.387.534-2.487 1.4-3.3.867-.813 2.067-1.22 3.6-1.22 1.534 0 2.734.407 3.6 1.22.867.813 1.334 1.913 1.4 3.3.014.16.02.453.02.88s-.006.72-.02.88c-.066 1.4-.526 2.507-1.38 3.32-.853.8-2.06 1.2-3.62 1.2zm0-1.98c.707 0 1.254-.22 1.64-.66.387-.453.6-1.113.64-1.98.014-.133.02-.393.02-.78s-.006-.647-.02-.78c-.04-.867-.253-1.52-.64-1.96-.386-.453-.933-.68-1.64-.68-.706 0-1.253.227-1.64.68-.386.44-.6 1.093-.64 1.96l-.02.78.02.78c.04.867.254 1.527.64 1.98.387.44.934.66 1.64.66zm11.736 1.98c-1.466 0-2.64-.407-3.52-1.22-.866-.813-1.326-1.94-1.38-3.38l-.02-.8.02-.8c.054-1.44.514-2.567 1.38-3.38.88-.813 2.054-1.22 3.52-1.22 1.04 0 1.92.187 2.64.56.734.373 1.274.833 1.62 1.38.36.533.554 1.04.58 1.52a.378.378 0 01-.14.34.461.461 0 01-.34.14h-1.76a.57.57 0 01-.32-.08 1.13 1.13 0 01-.2-.32c-.2-.52-.466-.893-.8-1.12-.32-.227-.733-.34-1.24-.34-.68 0-1.213.22-1.6.66-.386.427-.593 1.08-.62 1.96l-.02.74.02.66c.054 1.747.794 2.62 2.22 2.62.52 0 .94-.113 1.26-.34.32-.227.58-.6.78-1.12a.838.838 0 01.2-.3c.08-.067.187-.1.32-.1h1.76c.134 0 .247.047.34.14a.378.378 0 01.14.34c-.026.467-.213.967-.56 1.5-.346.533-.88.993-1.6 1.38-.72.387-1.613.58-2.68.58zm11.406 0c-1.48 0-2.66-.427-3.54-1.28-.867-.867-1.327-2.08-1.38-3.64l-.02-.5.02-.5c.067-1.52.533-2.713 1.4-3.58.88-.867 2.053-1.3 3.52-1.3 1.573 0 2.787.48 3.64 1.44.867.96 1.3 2.24 1.3 3.84v.42a.464.464 0 01-.14.34.486.486 0 01-.36.14h-6.64v.16c.027.733.227 1.353.6 1.86.387.493.913.74 1.58.74.787 0 1.42-.307 1.9-.92.12-.147.213-.24.28-.28.08-.04.193-.06.34-.06h1.72c.12 0 .22.04.3.12.093.067.14.153.14.26 0 .32-.193.7-.58 1.14-.373.427-.913.8-1.62 1.12-.707.32-1.527.48-2.46.48zm2.22-6.3v-.06c0-.787-.2-1.42-.6-1.9-.387-.48-.927-.72-1.62-.72-.693 0-1.233.24-1.62.72s-.58 1.113-.58 1.9v.06h4.42zm5.343 9.9a.463.463 0 01-.34-.14.424.424 0 01-.14-.34V14.48c0-.147.047-.26.14-.34a.463.463 0 01.34-.14h1.58c.147 0 .26.047.34.14.093.08.14.193.14.34v.8c.747-.987 1.813-1.48 3.2-1.48 1.347 0 2.38.427 3.1 1.28.72.84 1.107 1.98 1.16 3.42.013.16.02.393.02.7 0 .32-.007.56-.02.72-.053 1.4-.44 2.533-1.16 3.4-.72.853-1.753 1.28-3.1 1.28-1.347 0-2.373-.473-3.08-1.42v4.54c0 .147-.047.26-.14.34a.423.423 0 01-.34.14h-1.7zm4.52-5.74c1.44 0 2.207-.887 2.3-2.66.013-.133.02-.333.02-.6 0-.267-.007-.467-.02-.6-.093-1.773-.86-2.66-2.3-2.66-.773 0-1.347.247-1.72.74s-.58 1.1-.62 1.82l-.02.76.02.78c.027.667.233 1.24.62 1.72.4.467.973.7 1.72.7zm7.745 1.94a.465.465 0 01-.34-.14.464.464 0 01-.14-.34v-9.44c0-.133.047-.247.14-.34a.465.465 0 01.34-.14h4.44c1.374 0 2.407.253 3.1.76.707.507 1.06 1.213 1.06 2.12 0 .533-.1.96-.3 1.28-.2.307-.5.58-.9.82a2.36 2.36 0 011.08.96c.267.427.4.907.4 1.44 0 .973-.36 1.72-1.08 2.24-.72.52-1.766.78-3.14.78h-4.66zm4.4-6.16c.534 0 .954-.107 1.26-.32.307-.227.46-.553.46-.98 0-.413-.146-.707-.44-.88-.293-.173-.72-.26-1.28-.26h-2.32v2.44h2.32zm.08 4.36c.547 0 .974-.1 1.28-.3.32-.213.48-.527.48-.94 0-.44-.146-.76-.44-.96-.28-.2-.72-.3-1.32-.3h-2.4v2.5h2.4zm16.18-8.6a.44.44 0 01.32.14c.094.08.14.18.14.3v9.48a.46.46 0 01-.14.34.461.461 0 01-.34.14h-1.66a.465.465 0 01-.34-.14.464.464 0 01-.14-.34V17.5l-4.8 6.58c-.12.213-.3.32-.54.32h-1.52a.479.479 0 01-.32-.12.464.464 0 01-.14-.34v-9.46c0-.133.047-.247.14-.34a.465.465 0 01.34-.14h1.66c.147 0 .26.047.34.14.094.08.14.193.14.34v6.44l4.8-6.6c.147-.213.327-.32.54-.32h1.52zm7.481 10.6c-1.466 0-2.64-.407-3.52-1.22-.866-.813-1.326-1.94-1.38-3.38l-.02-.8.02-.8c.054-1.44.514-2.567 1.38-3.38.88-.813 2.054-1.22 3.52-1.22 1.04 0 1.92.187 2.64.56.734.373 1.274.833 1.62 1.38.36.533.554 1.04.58 1.52a.378.378 0 01-.14.34.461.461 0 01-.34.14h-1.76a.57.57 0 01-.32-.08 1.13 1.13 0 01-.2-.32c-.2-.52-.466-.893-.8-1.12-.32-.227-.733-.34-1.24-.34-.68 0-1.213.22-1.6.66-.386.427-.593 1.08-.62 1.96l-.02.74.02.66c.054 1.747.794 2.62 2.22 2.62.52 0 .94-.113 1.26-.34.32-.227.58-.6.78-1.12a.838.838 0 01.2-.3c.08-.067.187-.1.32-.1h1.76c.134 0 .247.047.34.14a.378.378 0 01.14.34c-.026.467-.213.967-.56 1.5-.346.533-.88.993-1.6 1.38-.72.387-1.613.58-2.68.58z" fill="#333"/><path fill-rule="evenodd" clip-rule="evenodd" d="M36.022 18.119L11.808 31.4c1.952.647 4.063 1 6.266 1 9.257 0 16.889-6.239 17.948-14.281zM8 29.652C3.175 26.744 0 21.804 0 16.2S3.175 5.656 8 2.748v26.904zM10.816 1.36A19.806 19.806 0 0118.074 0c9.62 0 17.485 6.738 18.042 15.236L10.816 1.36z" fill="#E5261E"/></svg>